<svg width="40" height="40" viewBox="0 0 40 40" fill="none" xmlns="http://www.w3.org/2000/svg">
<path d="M20 40C31.0457 40 40 31.0457 40 20C40 8.9543 31.0457 0 20 0C8.9543 0 0 8.9543 0 20C0 31.0457 8.9543 40 20 40Z" fill="#E27A4E"/>
<path d="M21.8763 39.9118C31.4264 39.023 39.0268 31.4204 39.9122 21.8692L23.429 5.38605L14.6077 18.74C14.6077 18.74 16.988 21.1212 17.0067 21.1396C16.8866 21.1064 16.6514 21.0128 16.6514 21.0128L12.1983 16.5596L8.39398 16.9975L10.5965 19.1438L8.01172 20.8564L9.73047 22.5163L8.97977 24.6121L16.5787 32.1826V34.6142L21.8763 39.9118Z" fill="#DC455B"/>
<path d="M8.396 23.0098L11.6156 21.8384L12.2013 23.4482L8.9817 24.6196L8.396 23.0098Z" fill="#F6DFB9"/>
<path d="M27.8174 16.5648L31.037 15.3934L31.6227 17.0032L28.4031 18.1746L27.8174 16.5648Z" fill="#EEBDA9"/>
<path d="M8.39844 16.9938L8.98414 15.384L12.2037 16.5553L11.618 18.1652L8.39844 16.9938Z" fill="#F6DFB9"/>
<path d="M27.8149 23.431L28.4006 21.8211L31.6202 22.9925L31.0345 24.6023L27.8149 23.431Z" fill="#EEBDA9"/>
<path d="M8.01172 19.1437H11.4369V20.8562H8.01172V19.1437Z" fill="#F6DFB9"/>
<path d="M28.563 19.1437H31.9881V20.8562H28.563V19.1437Z" fill="#EEBDA9"/>
<path d="M23.429 12.8341V5.38605H16.5787V12.8341C15.0379 13.5054 14.0098 15.0302 14.0098 16.7457C14.0098 17.4872 14.0954 18.3989 14.7639 18.8698C16.0284 19.7609 17.6393 18.1351 19.9998 18.1334H20.0038C22.3666 18.1334 23.9724 19.7707 25.2415 18.8784C25.9116 18.4075 25.9979 17.4912 25.9979 16.7457C25.9979 15.0302 24.9698 13.5054 23.429 12.8341Z" fill="#F1F6FF"/>
<path d="M25.998 16.7457C25.998 17.4912 25.9119 18.4075 25.2416 18.8784C23.9727 19.7707 22.3668 18.1334 20.004 18.1334H20V5.38605H23.4291V12.8341C24.9699 13.5054 25.998 15.0302 25.998 16.7457Z" fill="#F1F6FF"/>
<path d="M25.998 16.7457C25.998 17.4912 25.9119 18.4075 25.2416 18.8784C23.9727 19.7707 22.3668 18.1334 20.004 18.1334H20V5.38605H23.4291V12.8341C24.9699 13.5054 25.998 15.0302 25.998 16.7457Z" fill="#DFE5F2"/>
<path d="M23.4291 26.4802V34.6139H16.5788V26.4802C13.7131 25.2323 13.487 21.5725 14.6567 20.8018C15.7825 20.0603 16.8448 21.677 18.091 21.0753C18.4398 20.9063 18.929 20.0021 20 19.9998H20.004C21.0766 19.9998 21.5658 20.9058 21.9152 21.0736C23.1688 21.6759 24.2152 20.0495 25.3495 20.7945C26.5198 21.564 26.2989 25.2301 23.4291 26.4802Z" fill="#F1F6FF"/>
<path d="M23.4291 26.4802V34.6139H20V19.9998H20.004C21.0766 19.9998 21.5659 20.9058 21.9152 21.0736C23.1688 21.6759 24.2152 20.0495 25.3495 20.7945C26.5199 21.564 26.2989 25.2301 23.4291 26.4802Z" fill="#DFE5F2"/>
</svg>
