<svg width="40" height="40" viewBox="0 0 40 40" fill="none" xmlns="http://www.w3.org/2000/svg">
<path d="M20 40C31.0457 40 40 31.0457 40 20C40 8.9543 31.0457 0 20 0C8.9543 0 0 8.9543 0 20C0 31.0457 8.9543 40 20 40Z" fill="#64E1DC"/>
<path d="M13.501 33.0116L20.505 39.9938C31.1572 39.7298 39.7423 31.1371 39.9943 20.482L26.6887 7.17627L13.501 33.0116Z" fill="#00C8C8"/>
<path d="M20 35.6253C14.8156 35.6253 10.6128 31.4225 10.6128 26.238V13.762C10.6128 8.57757 14.8156 4.37476 20 4.37476C25.1845 4.37476 29.3873 8.57757 29.3873 13.762V26.238C29.3873 31.4225 25.1845 35.6253 20 35.6253Z" fill="#FF7045"/>
<path d="M20.0001 4.37484C14.8156 4.37484 10.6128 8.57765 10.6128 13.762V26.238C10.6128 31.4225 14.8156 35.6252 20.0001 35.6252C20.0032 35.6252 20.0063 35.6252 20.0095 35.6252V4.37492C20.0063 4.37492 20.0032 4.37484 20.0001 4.37484Z" fill="#FF7045"/>
<path d="M20.0095 4.37582V35.626C25.1896 35.621 29.3873 31.4203 29.3873 26.2389V13.7629C29.3874 8.58168 25.1897 4.38097 20.0095 4.37582Z" fill="#F05E3A"/>
<path d="M20 17.9517C16.9918 17.9517 14.5532 15.5131 14.5532 12.5049V11.4625C14.5532 8.45422 16.9918 6.01562 20 6.01562C23.0082 6.01562 25.4468 8.45422 25.4468 11.4624V12.5048C25.4468 15.513 23.0082 17.9517 20 17.9517Z" fill="#FFBEAA"/>
<path d="M20.0093 6.01579V17.9514C23.0131 17.9463 25.4467 15.5098 25.4467 12.5048V11.4624C25.4467 8.45735 23.0132 6.02086 20.0093 6.01579Z" fill="#FAA68E"/>
<path d="M10.6128 15.2924V26.2379C10.6128 29.1113 11.9042 31.6826 13.9378 33.4045L20.0095 24.8631L10.6128 15.2924Z" fill="#FF936B"/>
<path d="M20 35.6252C25.1845 35.6252 29.3873 31.4224 29.3873 26.238V13.7619C29.3873 13.5554 29.3806 13.3505 29.3674 13.1473L13.501 33.0115C15.1876 34.6303 17.4776 35.6252 20 35.6252Z" fill="#F05E3A"/>
<path d="M29.3673 13.1475L20.0093 24.8632V35.6251C25.1894 35.62 29.3871 31.4193 29.3871 26.238V13.762C29.3872 13.5555 29.3805 13.3506 29.3673 13.1475Z" fill="#D9351C"/>
<path d="M29.7482 29.4407C32.9439 29.4407 35.5346 26.8501 35.5346 23.6544C35.5346 20.4587 32.9439 17.8681 29.7482 17.8681C26.5525 17.8681 23.9619 20.4587 23.9619 23.6544C23.9619 26.8501 26.5525 29.4407 29.7482 29.4407Z" fill="white"/>
<path d="M35.5345 23.6544C35.5345 20.4756 32.9709 17.8965 29.7986 17.8693V29.4395C32.9709 29.4123 35.5345 26.8332 35.5345 23.6544Z" fill="#E9EDF5"/>
<path d="M33.3972 22.2593H31.1434V20.0055H28.3529V22.2593H26.0991V25.0498H28.3529V27.3036H31.1434V25.0498H33.3972V22.2593Z" fill="#FF7045"/>
<path d="M31.1434 22.2593V20.0055H29.7986V27.3036H31.1434V25.0498H33.3973V22.2593H31.1434Z" fill="#F05E3A"/>
<path d="M14.5532 12.038C18.717 12.1848 22.7735 9.37242 24.3275 8.1543C23.332 6.85414 21.764 6.01562 20 6.01562C16.9918 6.01562 14.5532 8.45422 14.5532 11.4624V12.038Z" fill="#FFCE00"/>
<path d="M20.0093 6.01587V10.7994C21.9252 9.92962 23.4899 8.81079 24.3273 8.15438C23.3337 6.85657 21.7694 6.01884 20.0093 6.01587Z" fill="#FDBA12"/>
</svg>
