<svg width="40" height="40" viewBox="0 0 40 40" fill="none" xmlns="http://www.w3.org/2000/svg">
<path d="M20 40C31.0457 40 40 31.0457 40 20C40 8.9543 31.0457 0 20 0C8.9543 0 0 8.9543 0 20C0 31.0457 8.9543 40 20 40Z" fill="#FF6379"/>
<path d="M13.3174 30.3555L22.7702 39.8083C31.5003 38.5984 38.4294 31.7551 39.7662 23.0663L27.0064 10.3063L13.3174 30.3555Z" fill="#FF415B"/>
<path d="M29.5823 16.5488C29.5823 11.5522 25.4431 7.52237 20.4065 7.70136C15.6089 7.87183 11.876 11.9604 11.876 16.761V26.6692C11.876 29.4593 14.0202 31.8601 16.8073 31.9913C19.7829 32.1314 22.2394 29.7602 22.2394 26.8154C22.2394 26.8102 22.2394 26.805 22.2394 26.7997C22.2369 25.9657 22.7362 25.2127 23.5276 24.9492C27.0455 23.7781 29.5823 20.4602 29.5823 16.5488Z" fill="#FFCCBD"/>
<path d="M20.7632 7.69659V30.4361C21.6762 29.502 22.2398 28.225 22.2398 26.8155C22.2398 26.8103 22.2398 26.805 22.2398 26.7998C22.2373 25.9658 22.7366 25.2128 23.5279 24.9493C27.0459 23.7782 29.5827 20.4603 29.5827 16.5489C29.5826 11.6707 25.6371 7.7148 20.7632 7.69659Z" fill="#FFBDA9"/>
<path d="M15.2695 22.6723H13.5659V16.924C13.5659 12.9555 16.7945 9.72687 20.763 9.72687C24.7315 9.72687 27.9602 12.9555 27.9602 16.924H26.2566C26.2566 13.8948 23.7922 11.4305 20.763 11.4305C17.7339 11.4305 15.2695 13.8948 15.2695 16.924V22.6723Z" fill="#F9A58D"/>
<path d="M16.6207 27.5666V25.863C17.6576 25.863 18.5011 25.0195 18.5011 23.9826C18.5011 22.9456 17.6576 22.102 16.6207 22.102C16.1104 22.102 15.6329 22.303 15.2761 22.6679L14.0581 21.4768C14.7381 20.7814 15.6483 20.3984 16.6207 20.3984C18.5969 20.3984 20.2047 22.0063 20.2047 23.9826C20.2047 25.9588 18.5969 27.5666 16.6207 27.5666Z" fill="#F9A58D"/>
<path d="M20.7632 9.72687V11.4305C23.7923 11.4305 26.2568 13.8948 26.2568 16.924H27.9604C27.9603 12.9555 24.7316 9.72687 20.7632 9.72687Z" fill="#D37F6C"/>
</svg>
