<svg width="40" height="40" viewBox="0 0 40 40" fill="none" xmlns="http://www.w3.org/2000/svg">
<path d="M20 40C31.0457 40 40 31.0457 40 20C40 8.9543 31.0457 0 20 0C8.9543 0 0 8.9543 0 20C0 31.0457 8.9543 40 20 40Z" fill="#FF5B62"/>
<path d="M13.3174 30.3553L22.7702 39.8081C31.5003 38.5983 37.9965 32.6888 39.3333 24L22.7702 12L13.3174 30.3553Z" fill="#EF333B"/>
<path d="M3.80859 20.9406C12.8561 6.41734 26.3326 6.41734 35.38 20.9406C26.3325 35.4641 12.8561 35.4641 3.80859 20.9406Z" fill="#EBECEC"/>
<path d="M3.80859 20.9408C12.8561 7.62478 26.3326 7.62478 35.38 20.9408C26.3325 34.2571 12.8561 34.2571 3.80859 20.9408Z" fill="white"/>
<path d="M19.594 27.5388C23.2384 27.5388 26.1928 24.5844 26.1928 20.94C26.1928 17.2955 23.2384 14.3411 19.594 14.3411C15.9495 14.3411 12.9951 17.2955 12.9951 20.94C12.9951 24.5844 15.9495 27.5388 19.594 27.5388Z" fill="#EBECEC"/>
<path d="M19.5939 26.9514C22.9136 26.9514 25.6048 24.2603 25.6048 20.9406C25.6048 17.6208 22.9136 14.9297 19.5939 14.9297C16.2742 14.9297 13.583 17.6208 13.583 20.9406C13.583 24.2603 16.2742 26.9514 19.5939 26.9514Z" fill="#21D0C3"/>
<path d="M19.5937 23.8496C21.2004 23.8496 22.5029 22.5471 22.5029 20.9404C22.5029 19.3337 21.2004 18.0312 19.5937 18.0312C17.987 18.0312 16.6846 19.3337 16.6846 20.9404C16.6846 22.5471 17.987 23.8496 19.5937 23.8496Z" fill="#666666"/>
<path d="M15.6267 19.0284C16.3889 19.0284 17.0067 18.4105 17.0067 17.6483C17.0067 16.8861 16.3889 16.2682 15.6267 16.2682C14.8645 16.2682 14.2466 16.8861 14.2466 17.6483C14.2466 18.4105 14.8645 19.0284 15.6267 19.0284Z" fill="white"/>
<path d="M22.0001 24.2894C22.519 24.2894 22.9396 23.8688 22.9396 23.3499C22.9396 22.831 22.519 22.4103 22.0001 22.4103C21.4812 22.4103 21.0605 22.831 21.0605 23.3499C21.0605 23.8688 21.4812 24.2894 22.0001 24.2894Z" fill="white"/>
<path d="M27.0825 17.0095C27.0199 14.3244 29.932 12.1807 30.4279 9.01239C30.9237 12.1808 33.8358 14.3244 33.7731 17.0095C33.7731 21.4097 27.0825 21.4097 27.0825 17.0095Z" fill="#21D0C3"/>
<path d="M30.4277 9.01239C30.9235 12.1808 33.8357 14.3244 33.7729 17.0095C33.7729 20.3989 29.8038 21.1768 27.98 19.3447C29.4929 20.5315 32.2268 20.0721 33.082 18.2545C34.4139 15.4237 30.4215 12.3369 30.4277 9.01239Z" fill="#15BDB2"/>
<path d="M29.213 12.9017C29.213 12.9017 26.9665 15.7525 27.7466 17.4215C28.399 18.8172 28.3126 14.794 29.213 12.9017Z" fill="white"/>
</svg>
