<svg width="40" height="40" viewBox="0 0 40 40" fill="none" xmlns="http://www.w3.org/2000/svg">
<path d="M20 40C31.0457 40 40 31.0457 40 20C40 8.9543 31.0457 0 20 0C8.9543 0 0 8.9543 0 20C0 31.0457 8.9543 40 20 40Z" fill="#E27266"/>
<path d="M39.3544 25.058C35.9479 21.6515 31.3757 17.0798 31.3757 17.0798L29.6704 16.0114L20.1391 6.48013L15.9268 8.96896L13.4375 6.48013L7.43457 14.1361L10.7616 22.2711C10.7616 22.2711 14.1311 25.6408 14.1362 25.6459L16.3847 32.0876C16.3847 32.0876 20.5693 36.2726 23.9132 39.6163C31.434 38.1244 37.4368 32.4164 39.3544 25.058Z" fill="#C7475A"/>
<path d="M27.5394 23.3509V26.7576C27.5394 29.9906 24.9085 32.6215 21.6754 32.6215C18.4424 32.6215 15.8115 29.9906 15.8115 26.7576V23.3509H14.9737H14.136V26.7576C14.136 27.9794 14.4557 29.1174 14.9737 30.139C16.2184 32.5939 18.7398 34.2969 21.6754 34.2969C25.8329 34.2969 29.2148 30.915 29.2148 26.7576V23.3509H27.5394Z" fill="#54747F"/>
<path d="M21.6754 34.2969C25.8328 34.2969 29.2147 30.915 29.2147 26.7576V23.3509H27.5393V26.7576C27.5393 29.9906 24.9084 32.6215 21.6754 32.6215C18.4423 32.6215 15.8114 29.9906 15.8114 26.7576V23.3509H14.9736V30.1391C16.2183 32.5939 18.7397 34.2969 21.6754 34.2969Z" fill="#455E72"/>
<path d="M28.3772 24.1886C26.0678 24.1886 24.1887 22.3094 24.1887 20C24.1887 17.6907 26.0679 15.8115 28.3772 15.8115C30.6866 15.8115 32.5658 17.6906 32.5658 20C32.5658 22.3095 30.6866 24.1886 28.3772 24.1886Z" fill="#E9F2F2"/>
<path d="M28.3774 22.5132C29.7653 22.5132 30.8905 21.3881 30.8905 20.0001C30.8905 18.6121 29.7653 17.487 28.3774 17.487C26.9894 17.487 25.8643 18.6121 25.8643 20.0001C25.8643 21.3881 26.9894 22.5132 28.3774 22.5132Z" fill="#D5E5E5"/>
<path d="M27.5396 19.1624H29.2149V20.8378H27.5396V19.1624Z" fill="#E9F2F2"/>
<path d="M19.9683 8.73404L19.0096 10.1084C20.2228 10.9543 20.8379 12.3461 20.8379 14.136C20.8379 17.9065 18.1318 22.5131 14.9739 22.5131C11.8161 22.5131 9.10996 17.9065 9.10996 14.136C9.10996 12.3461 9.72512 10.9543 10.9383 10.1084L9.97957 8.73404C8.3148 9.8949 7.43457 11.7996 7.43457 14.136C7.43457 18.7843 10.7282 24.1885 14.9739 24.1885C19.2197 24.1885 22.5133 18.7843 22.5133 14.136C22.5133 11.7996 21.6331 9.8949 19.9683 8.73404Z" fill="#94E5CF"/>
<path d="M22.5133 14.136C22.5133 11.7996 21.633 9.8949 19.9683 8.73404L19.0095 10.1084C20.2227 10.9543 20.8379 12.3461 20.8379 14.136C20.8379 17.9065 18.1317 22.5131 14.9739 22.5131V24.1885C19.2197 24.1885 22.5133 18.7844 22.5133 14.136Z" fill="#7CCBBF"/>
<path d="M11.623 10.7294C10.2372 10.7294 9.10986 9.60203 9.10986 8.21625C9.10986 6.83039 10.2372 5.70312 11.623 5.70312C13.0088 5.70312 14.1361 6.83039 14.1361 8.21625C14.1361 9.60203 13.0088 10.7294 11.623 10.7294Z" fill="#54747F"/>
<path d="M18.3246 10.7294C16.9388 10.7294 15.8115 9.60203 15.8115 8.21625C15.8115 6.83039 16.9388 5.70312 18.3246 5.70312C19.7104 5.70312 20.8378 6.83039 20.8378 8.21625C20.8378 9.60203 19.7104 10.7294 18.3246 10.7294Z" fill="#455E72"/>
</svg>
