<svg width="40" height="40" viewBox="0 0 40 40" fill="none" xmlns="http://www.w3.org/2000/svg">
<path d="M20 40C31.0457 40 40 31.0457 40 20C40 8.9543 31.0457 0 20 0C8.9543 0 0 8.9543 0 20C0 31.0457 8.9543 40 20 40Z" fill="#EA8953"/>
<path opacity="0.1" d="M24.6018 8.67759C24.5202 8.59344 24.4067 8.54071 24.2792 8.54071H15.7209C15.4709 8.54071 15.2709 8.74074 15.2709 8.99074V11.2699C15.2709 11.3888 15.3184 11.4945 15.3927 11.5746L15.3908 11.5751L15.3977 11.5821C15.4014 11.5859 15.4049 11.5895 15.4087 11.5931L16.4334 12.6177C16.4119 13.0348 16.2262 13.4284 15.9084 13.6991L14.8667 14.5991C14.3459 15.0491 14.0459 15.7031 14.0459 16.3907V30.799C14.0459 31.0106 14.1462 31.195 14.2992 31.315L22.7868 39.8026C31.2869 38.617 38.0723 32.0918 39.6486 23.7232L24.6021 8.67686L24.6018 8.67759Z" fill="black"/>
<path d="M24.2796 8.54169H15.7201C15.4723 8.54169 15.2715 8.74253 15.2715 8.99033V11.271C15.2715 11.5187 15.4723 11.7196 15.7201 11.7196H24.2796C24.5273 11.7196 24.7281 11.5187 24.7281 11.271V8.99033C24.7282 8.74253 24.5274 8.54169 24.2796 8.54169Z" fill="#64798A"/>
<path d="M25.1322 14.5991L24.0906 13.7008C23.7533 13.4098 23.5594 12.9865 23.5594 12.5411V11.7194H16.4407V12.541C16.4407 12.9864 16.2467 13.4098 15.9095 13.7007L14.8679 14.5991C14.3473 15.0481 14.0479 15.7017 14.0479 16.3893V30.8001C14.0479 31.1635 14.3424 31.4581 14.7059 31.4581H25.2943C25.6577 31.4581 25.9523 31.1635 25.9523 30.8001V16.3893C25.9522 15.7018 25.6528 15.0482 25.1322 14.5991Z" fill="#EBF0F3"/>
<path d="M14.887 16.0843C14.867 16.184 14.8555 16.2859 14.8555 16.3895V30.6507H25.1448V16.3896C25.1448 16.2861 25.1332 16.1841 25.1133 16.0844H14.887V16.0843Z" fill="#E56353"/>
<path d="M14.0479 30.1384V30.8005C14.0479 31.1639 14.3424 31.4585 14.7059 31.4585H25.2943C25.6577 31.4585 25.9523 31.1639 25.9523 30.8005V30.1384C22.0266 29.3323 18.0565 29.3691 14.0479 30.1384Z" fill="#E1E6E9"/>
<path d="M19.7503 18.9316C19.2852 18.9316 18.9082 19.3087 18.9082 19.7738V26.1448C18.9082 26.6099 19.2852 26.9869 19.7503 26.9869H25.9522V18.9316H19.7503Z" fill="#FCD462"/>
</svg>
