<svg width="40" height="40" viewBox="0 0 40 40" fill="none" xmlns="http://www.w3.org/2000/svg">
<path d="M20 40C31.0457 40 40 31.0457 40 20C40 8.9543 31.0457 0 20 0C8.9543 0 0 8.9543 0 20C0 31.0457 8.9543 40 20 40Z" fill="#3D5D72"/>
<path d="M40 19.9999C40 17.2092 39.4278 14.5524 38.3953 12.1395L32.7132 6.45737L25.8399 11.8944L10.599 11.953C10.599 11.953 6.83262 17.9419 8.50644 24.1923L13.464 29.1531L13.5662 30.5353L10.1803 32.7655L12.9297 35.4491L12.6714 35.7615L16.6247 39.7149C17.7221 39.9014 18.8495 39.9999 20 39.9999C31.0457 39.9999 40 31.0456 40 19.9999Z" fill="#324A5E"/>
<path d="M22.5188 18.2146C22.5188 13.6463 18.8023 9.92978 14.2341 9.92978C9.66578 9.92978 5.94922 13.6463 5.94922 18.2146C5.94922 22.2488 8.84781 25.6181 12.6716 26.351V29.6407H10.1805V32.7657H12.6716V35.7617H15.7966V32.7657H18.2877V29.6407H15.7966V26.351C19.6203 25.6181 22.5188 22.2488 22.5188 18.2146ZM9.07422 18.2146C9.07422 15.3695 11.3889 13.0548 14.2341 13.0548C17.0791 13.0548 19.3938 15.3695 19.3938 18.2146C19.3938 21.0597 17.0791 23.3744 14.2341 23.3744C11.3889 23.3744 9.07422 21.0598 9.07422 18.2146Z" fill="#FF637B"/>
<path d="M22.519 18.2149C22.519 13.6462 18.8026 9.92978 14.2339 9.92978V13.0548C17.0792 13.0548 19.394 15.3696 19.394 18.2149C19.394 21.0595 17.0792 23.3743 14.2339 23.3743V35.7618H15.7964V32.7657H18.2878V29.6407H15.7964V26.3509C19.6206 25.6181 22.519 22.2485 22.519 18.2149Z" fill="#F94367"/>
<path d="M26.8569 7.65682L28.0804 8.88034L25.6058 11.355C24.2447 10.4283 22.6389 9.92955 20.9562 9.92955C18.7432 9.92955 16.6627 10.7913 15.098 12.3561C13.5332 13.921 12.6714 16.0014 12.6714 18.2144C12.6714 20.4274 13.5332 22.5078 15.098 24.0726C16.6627 25.6374 18.7432 26.4992 20.9562 26.4992C23.1691 26.4992 25.2496 25.6374 26.8144 24.0726C28.3791 22.5078 29.2409 20.4273 29.2409 18.2144C29.2409 16.5317 28.7422 14.9258 27.8154 13.5648L30.2901 11.0901L31.5137 12.3136L32.7131 6.45737L26.8569 7.65682ZM24.6047 21.8629C23.6302 22.8375 22.3344 23.3742 20.9562 23.3742C19.578 23.3742 18.2822 22.8374 17.3077 21.8629C16.3331 20.8883 15.7965 19.5926 15.7965 18.2144C15.7965 16.8361 16.3332 15.5404 17.3077 14.5658C18.2822 13.5913 19.578 13.0546 20.9562 13.0546C22.3344 13.0546 23.6302 13.5913 24.6047 14.5658C25.5794 15.5404 26.116 16.8361 26.116 18.2144C26.116 19.5926 25.5793 20.8884 24.6047 21.8629Z" fill="#00EFD1"/>
<path d="M26.8573 7.65683L28.0808 8.88027L25.6058 11.3553C24.2448 10.4279 22.6394 9.92949 20.9565 9.92949V13.0545C22.3347 13.0545 23.6308 13.5912 24.605 14.5654C25.5792 15.5404 26.1159 16.8357 26.1159 18.2146C26.1159 19.5928 25.5792 20.8881 24.605 21.8631C23.6308 22.8373 22.3347 23.374 20.9565 23.374V26.499C23.169 26.499 25.2495 25.6373 26.8144 24.0725C28.3792 22.5076 29.2409 20.4271 29.2409 18.2146C29.2409 16.5318 28.7425 14.9256 27.8159 13.5646L30.2901 11.0896L31.5136 12.3131L32.7136 6.45761L26.8573 7.65683Z" fill="#00CEB4"/>
<path d="M18.1552 21.5626C17.2081 22.6702 15.8021 23.3743 14.2339 23.3743V26.4993C17.6112 26.4993 20.5226 24.4677 21.8112 21.5626H18.1552Z" fill="#F94367"/>
</svg>
