<svg width="40" height="40" viewBox="0 0 40 40" fill="none" xmlns="http://www.w3.org/2000/svg">
<path d="M20 40C31.0457 40 40 31.0457 40 20C40 8.9543 31.0457 0 20 0C8.9543 0 0 8.9543 0 20C0 31.0457 8.9543 40 20 40Z" fill="#FF5B62"/>
<path d="M13.3174 30.3551L22.7702 39.8079C31.5003 38.5981 38.4294 31.7547 39.7662 23.0659L27.0064 10.306L13.3174 30.3551Z" fill="#EA464D"/>
<path d="M20.0154 35.2325C24.7963 35.2325 28.6719 34.9162 28.6719 34.5261C28.6719 34.1359 24.7963 33.8197 20.0154 33.8197C15.2345 33.8197 11.3589 34.1359 11.3589 34.5261C11.3589 34.9162 15.2345 35.2325 20.0154 35.2325Z" fill="#ED4C54"/>
<path d="M20.0156 11.3372C18.0968 11.3543 13.3555 9.53837 12.0254 11.4341C10.5733 13.5037 10.8151 18.0169 11.8178 19.5691C12.8205 21.1215 13.5812 22.1849 13.5812 22.7599C13.5812 23.3349 13.4427 32.7346 13.512 33.4532C13.581 34.1719 13.823 34.6893 14.1343 34.6893C14.4454 34.6893 15.4629 32.9933 15.947 31.7572C16.431 30.5213 18.9974 24.7305 20.1038 24.7305C22.29 24.7305 25.7147 34.6894 25.8967 34.6894C26.2078 34.6894 26.45 34.172 26.519 33.4533C26.5881 32.7346 26.4498 23.3349 26.4498 22.76C26.4498 22.1851 27.2105 21.1215 28.2132 19.5692C29.2159 18.017 29.4577 13.5038 28.0056 11.4342C26.6755 9.53844 22.5915 11.5555 20.0156 11.3372Z" fill="#EEF3F7"/>
<path d="M18.6704 11.1885C16.7477 11.0027 14.0855 11.1378 13.0634 11.7344C12.0414 12.3309 11.1603 17.2555 12.6126 19.4687C14.0647 21.682 14.4796 22.3433 14.1684 24.2979C13.8573 26.2524 13.6507 33.6112 14.1343 34.6892C13.8232 34.6892 13.5812 34.1717 13.5119 33.4531C13.4429 32.7344 13.5812 23.3347 13.5812 22.7599C13.5812 22.1849 12.8205 21.1214 11.8178 19.5691C10.8151 18.0169 10.5733 13.5037 12.0254 11.4341C13.1048 9.89586 16.4298 10.8014 18.6706 11.1884L18.6704 11.1885Z" fill="white"/>
<path d="M25.8968 34.6891C24.6856 31.8344 22.6989 24.0869 20.0679 24.7321C21.7712 24.7321 25.0898 34.8298 25.8968 34.6891Z" fill="white"/>
<path d="M26.5005 27.1437C26.4765 24.9687 26.4497 23.0124 26.4497 22.7597C26.4497 22.1847 27.2104 21.1212 28.213 19.5689C28.7657 18.713 29.0872 16.957 29.0211 15.2067C28.9079 18.0704 26.0917 21.5984 25.8756 22.085C25.6592 22.5717 26.4819 25.358 26.5004 27.1421L26.5005 27.1437V27.1437Z" fill="#D9DADA"/>
<path d="M20.1434 11.9267C18.8726 11.9686 17.5071 11.2473 16.7769 11.6639C16.7769 11.6639 18.548 12.0478 19.5756 12.3986C21.4094 13.0245 23.2243 11.2646 24.4158 11.5173C23.3966 10.9922 21.3717 11.8863 20.1433 11.9266V11.9268H20.1434V11.9267Z" fill="#D9DADA"/>
<path d="M13.6932 10.8165C12.1771 9.42413 10.8206 9.42413 9.39746 10.8165C10.8206 9.42413 10.8206 8.06763 9.39746 6.52083C10.8206 8.06763 12.1771 8.06763 13.6932 6.52083C12.1771 8.06763 12.1771 9.42436 13.6932 10.8165Z" fill="#FEFEFE"/>
<path d="M23.7532 4.86914C24.6253 5.67016 25.4056 5.67016 26.2244 4.86914C25.4057 5.67016 25.4057 6.45024 26.2244 7.34008C25.4057 6.45016 24.6253 6.45016 23.7532 7.34008C24.6253 6.45016 24.6253 5.66992 23.7532 4.86914Z" fill="#FEFEFE"/>
<path d="M29.4871 14.2897C30.0517 14.808 30.5568 14.808 31.0866 14.2897C30.5565 14.808 30.5565 15.3132 31.0866 15.8893C30.5565 15.3132 30.0515 15.3132 29.4871 15.8893C30.0517 15.3132 30.0517 14.8082 29.4871 14.2897Z" fill="#FEFEFE"/>
<path d="M6.08643 17.1839C6.95854 17.9849 7.73885 17.9849 8.55761 17.1839C7.73893 17.9849 7.73893 18.7652 8.55761 19.6551C7.73893 18.7652 6.95854 18.7652 6.08643 19.6551C6.95854 18.7652 6.95854 17.9848 6.08643 17.1839Z" fill="#FEFEFE"/>
</svg>
