<svg width="40" height="40" viewBox="0 0 40 40" fill="none" xmlns="http://www.w3.org/2000/svg">
<path d="M7.95438 35.9672C3.12258 32.3164 0 26.5228 0 20.0001C0 8.95433 8.9543 0 20 0C31.0457 0 40 8.95433 40 20.0001C40 26.6582 36.7466 32.5564 31.7427 36.1917L7.95438 35.9672Z" fill="#FF5F96"/>
<path d="M31.7429 36.1918C36.7467 32.5566 40.0002 26.6583 40.0002 20.0002C40.0002 19.9678 40.0001 19.9355 40 19.9032L24.4279 4.33107L15.853 15.4086L19.8582 19.4138L18.8434 32.1825L31.7429 36.1918Z" fill="#D72878"/>
<path d="M28.235 21.8949C27.8646 20.3796 26.3359 19.4513 24.8206 19.8217L23.0249 20.2606L27.2544 38.6439C28.8621 38.0179 30.3689 37.1899 31.7436 36.1912L28.235 21.8949Z" fill="#E09380"/>
<path d="M11.7655 21.8949L7.95459 35.9672C9.47069 37.1127 11.1551 38.0474 12.9641 38.7274L16.9755 20.2606L15.1799 19.8217C13.6645 19.4513 12.1358 20.3796 11.7655 21.8949Z" fill="#FAA68E"/>
<path d="M16.4551 19.3938C17.2994 20.412 18.5739 21.0605 19.9999 21.0605C21.4259 21.0605 22.7005 20.412 23.5448 19.3938L23.3596 19.3626C22.6941 19.2505 22.2068 18.6742 22.2068 17.9994V14.9265H17.793V17.9994C17.793 18.6742 17.3057 19.2505 16.6402 19.3626L16.4551 19.3938Z" fill="#FAA68E"/>
<path d="M23.545 19.3938L23.3599 19.3626C22.6944 19.2505 22.2071 18.6742 22.2071 17.9994V14.9265H20.0068V21.0604C21.4302 21.0584 22.7021 20.4104 23.545 19.3938Z" fill="#E09380"/>
<path d="M20.2184 17.3919H19.7819C17.0854 17.3919 14.8994 15.206 14.8994 12.5094V9.79464C14.8994 7.09815 17.0854 4.91212 19.7819 4.91212H20.2184C22.9149 4.91212 25.1009 7.09807 25.1009 9.79464V12.5094C25.1009 15.206 22.915 17.3919 20.2184 17.3919Z" fill="#FFBEAA"/>
<path d="M20.2184 4.91212H20.0068V17.3919H20.2184C22.9149 17.3919 25.1009 15.2059 25.1009 12.5093V9.79456C25.1009 7.09807 22.915 4.91212 20.2184 4.91212Z" fill="#FAA68E"/>
<path d="M20.2441 2.46584H19.7562C16.7422 2.46584 14.2988 4.79858 14.2988 7.67609V10.5731C14.2988 11.4484 14.5249 12.2734 14.9244 12.9975V10.9863C14.9244 8.42445 17.0997 6.34765 19.783 6.34765H20.2173C22.9006 6.34765 25.0759 8.42437 25.0759 10.9863V12.9975C25.4753 12.2734 25.7014 11.4484 25.7014 10.5731V7.67609C25.7016 4.79858 23.2582 2.46584 20.2441 2.46584Z" fill="#636978"/>
<path d="M20.2441 2.46584H20.0068V6.34765H20.2173C22.9007 6.34765 25.0759 8.42445 25.0759 10.9863V12.9975C25.4754 12.2734 25.7014 11.4484 25.7014 10.5731V7.67609C25.7015 4.79858 23.2582 2.46584 20.2441 2.46584Z" fill="#414952"/>
<path d="M27.6527 22.3859C27.6527 21.6695 27.3735 21.0097 26.911 20.5192C26.9103 20.5195 26.9095 20.5199 26.9088 20.5202C26.5143 20.1013 25.9871 19.8049 25.3841 19.7032L23.3598 19.3623C23.3513 19.3609 23.3429 19.3594 23.3345 19.3578C22.4565 20.1636 21.2857 20.6555 20.0001 20.6555C18.7145 20.6555 17.5437 20.1636 16.6656 19.3578C16.6572 19.3594 16.6488 19.3609 16.6404 19.3623L14.6161 19.7032C14.0131 19.8049 13.4859 20.1013 13.0913 20.5202C13.0906 20.5199 13.0899 20.5195 13.0892 20.5192C12.6266 21.0097 12.3475 21.6695 12.3475 22.3859V27.1086C11.0557 28.6161 10.2856 30.5147 10.2856 32.5778C10.2856 33.9226 10.6128 36.1551 11.1984 37.9641C13.8542 39.2679 16.8417 40 20 40C22.7106 40 25.2953 39.4607 27.6527 38.4837V38.0469C28.9445 36.5396 29.7146 34.6409 29.7146 32.5778C29.7146 30.5147 28.9445 28.6161 27.6527 27.1086V22.3859Z" fill="#E9EDF5"/>
<path d="M27.6526 22.3859C27.6526 21.6695 27.3734 21.0097 26.9109 20.5192C26.9102 20.5195 26.9095 20.5199 26.9087 20.5202C26.5142 20.1013 25.987 19.8049 25.384 19.7032L23.3597 19.3623C23.3512 19.3609 23.3428 19.3594 23.3345 19.3578C22.458 20.1622 21.2897 20.6536 20.0066 20.6552V23.7C20.0045 23.7 20.0022 23.7 20 23.7V40C23.1584 40 26.1458 39.2679 28.8017 37.9641C29.3873 36.155 29.7145 33.9226 29.7145 32.5778C29.7145 30.5147 28.9444 28.6161 27.6526 27.1086V22.3859Z" fill="#DCE1EB"/>
</svg>
